<svg width="20" height="20" viewBox="0 0 20 20" fill="none" xmlns="http://www.w3.org/2000/svg">
<path d="M8.17997 15.0078C8.29997 15.0078 8.39097 15.0038 8.45097 14.9958C8.52136 14.9815 8.58482 14.9438 8.63097 14.8888C8.69097 14.8258 8.72097 14.7348 8.72097 14.6148L8.71697 14.0578C8.71397 13.7028 8.71297 13.4208 8.71297 13.2138L8.52497 13.2468C8.37453 13.2705 8.22218 13.2798 8.06997 13.2748C7.87873 13.2714 7.68809 13.2523 7.49997 13.2178C7.30033 13.1805 7.11246 13.0962 6.95197 12.9718C6.78373 12.8445 6.65817 12.6691 6.59197 12.4688L6.50997 12.2798C6.441 12.1309 6.35437 11.9909 6.25197 11.8628C6.16002 11.7314 6.0375 11.6243 5.89497 11.5508L5.83797 11.5108C5.79871 11.4818 5.76312 11.4483 5.73197 11.4108C5.70173 11.3767 5.67679 11.3383 5.65797 11.2968C5.64197 11.2588 5.65497 11.2268 5.69797 11.2028C5.77344 11.1724 5.85485 11.1598 5.93597 11.1658L6.09997 11.1908C6.20997 11.2118 6.34497 11.2778 6.50597 11.3868C6.66597 11.4968 6.79897 11.6378 6.90297 11.8128C7.02897 12.0368 7.17997 12.2078 7.35797 12.3248C7.51509 12.4356 7.70175 12.4969 7.89397 12.5008C8.07397 12.5008 8.22997 12.4878 8.36097 12.4608C8.48848 12.4343 8.61236 12.3927 8.72997 12.3368C8.77897 11.9718 8.91197 11.6898 9.12997 11.4938C8.84695 11.4658 8.56648 11.4163 8.29097 11.3458C8.02196 11.2716 7.76329 11.1641 7.52097 11.0258C7.2672 10.8881 7.04295 10.7019 6.86097 10.4778C6.68697 10.2588 6.54397 9.97276 6.43097 9.61776C6.31315 9.21897 6.25683 8.80454 6.26397 8.38876C6.26397 7.72876 6.47997 7.16576 6.91097 6.70176C6.70897 6.20476 6.72797 5.64776 6.96797 5.03076C7.12697 4.98076 7.36197 5.01776 7.67297 5.14076C7.98397 5.26376 8.21297 5.36876 8.35697 5.45676C8.50197 5.54376 8.61697 5.61676 8.70497 5.67676C9.21714 5.53452 9.74641 5.46319 10.278 5.46476C10.818 5.46476 11.343 5.53476 11.851 5.67776L12.161 5.48076C12.375 5.35076 12.626 5.22976 12.915 5.12076C13.205 5.01076 13.426 4.98076 13.579 5.03076C13.825 5.64776 13.847 6.20476 13.644 6.70076C14.076 7.16576 14.292 7.72776 14.292 8.38876C14.292 8.85276 14.236 9.26376 14.124 9.62176C14.012 9.97976 13.867 10.2658 13.69 10.4818C13.505 10.7037 13.2797 10.8886 13.026 11.0268C12.7837 11.1652 12.525 11.2727 12.256 11.3468C11.9801 11.417 11.6993 11.4662 11.416 11.4938C11.7 11.7388 11.842 12.1268 11.842 12.6568V14.6138C11.842 14.7068 11.856 14.7818 11.883 14.8398C11.8957 14.8674 11.9138 14.8922 11.9363 14.9126C11.9588 14.9331 11.9852 14.9488 12.014 14.9588C12.074 14.9798 12.128 14.9938 12.174 14.9988C12.221 15.0048 12.287 15.0078 12.374 15.0078H8.17997Z" fill="#1C1C1C"/>
<path d="M4 2C3.46957 2 2.96086 2.21071 2.58579 2.58579C2.21071 2.96086 2 3.46957 2 4V16C2 16.5304 2.21071 17.0391 2.58579 17.4142C2.96086 17.7893 3.46957 18 4 18H16C16.5304 18 17.0391 17.7893 17.4142 17.4142C17.7893 17.0391 18 16.5304 18 16V4C18 3.46957 17.7893 2.96086 17.4142 2.58579C17.0391 2.21071 16.5304 2 16 2H4ZM4 0H16C17.0609 0 18.0783 0.421427 18.8284 1.17157C19.5786 1.92172 20 2.93913 20 4V16C20 17.0609 19.5786 18.0783 18.8284 18.8284C18.0783 19.5786 17.0609 20 16 20H4C2.93913 20 1.92172 19.5786 1.17157 18.8284C0.421427 18.0783 0 17.0609 0 16V4C0 2.93913 0.421427 1.92172 1.17157 1.17157C1.92172 0.421427 2.93913 0 4 0Z" fill="#1C1C1C"/>
</svg>
