<svg width="20" height="20" viewBox="0 0 20 20" fill="none" xmlns="http://www.w3.org/2000/svg">
<path d="M15 11.13V14.827H12.857V11.377C12.857 10.511 12.547 9.92 11.771 9.92C11.179 9.92 10.826 10.318 10.671 10.704C10.615 10.842 10.6 11.034 10.6 11.226V14.827H8.456C8.456 14.827 8.485 8.985 8.456 8.38H10.6V9.293L10.586 9.314H10.6V9.293C10.885 8.853 11.393 8.228 12.532 8.228C13.942 8.228 15 9.15 15 11.13ZM6.213 5.271C5.48 5.271 5 5.753 5 6.385C5 7.005 5.466 7.5 6.185 7.5H6.199C6.947 7.5 7.412 7.004 7.412 6.385C7.398 5.753 6.947 5.271 6.213 5.271ZM5.127 14.827H7.271V8.38H5.127V14.827Z" fill="#1C1C1C"/>
<path d="M4 2C3.46957 2 2.96086 2.21071 2.58579 2.58579C2.21071 2.96086 2 3.46957 2 4V16C2 16.5304 2.21071 17.0391 2.58579 17.4142C2.96086 17.7893 3.46957 18 4 18H16C16.5304 18 17.0391 17.7893 17.4142 17.4142C17.7893 17.0391 18 16.5304 18 16V4C18 3.46957 17.7893 2.96086 17.4142 2.58579C17.0391 2.21071 16.5304 2 16 2H4ZM4 0H16C17.0609 0 18.0783 0.421427 18.8284 1.17157C19.5786 1.92172 20 2.93913 20 4V16C20 17.0609 19.5786 18.0783 18.8284 18.8284C18.0783 19.5786 17.0609 20 16 20H4C2.93913 20 1.92172 19.5786 1.17157 18.8284C0.421427 18.0783 0 17.0609 0 16V4C0 2.93913 0.421427 1.92172 1.17157 1.17157C1.92172 0.421427 2.93913 0 4 0Z" fill="#1C1C1C"/>
</svg>
