<svg width="18" height="18" viewBox="0 0 18 18" fill="none" xmlns="http://www.w3.org/2000/svg">
<path d="M1 0H17C17.2652 0 17.5196 0.105357 17.7071 0.292893C17.8946 0.48043 18 0.734784 18 1V17C18 17.2652 17.8946 17.5196 17.7071 17.7071C17.5196 17.8946 17.2652 18 17 18H1C0.734784 18 0.48043 17.8946 0.292893 17.7071C0.105357 17.5196 0 17.2652 0 17V1C0 0.734784 0.105357 0.48043 0.292893 0.292893C0.48043 0.105357 0.734784 0 1 0ZM2 2V16H16V2H2ZM14.3 12.94L15.255 13.894V13.944H10.334V13.894L11.338 12.94C11.438 12.84 11.488 12.74 11.488 12.589V6.664C11.488 6.412 11.488 6.061 11.539 5.76L8.225 14.045H8.175L4.759 6.412C4.709 6.212 4.659 6.212 4.609 6.112V11.132C4.558 11.484 4.609 11.785 4.759 12.087L6.115 13.894V13.944H2.499V13.894L3.855 12.036C4.005 11.736 4.055 11.384 4.005 11.082V5.56C4.005 5.309 3.955 5.007 3.755 4.807L2.85 3.55V3.5H6.366L9.278 9.978L11.84 3.5H15.255V3.55L14.301 4.655C14.201 4.755 14.151 4.906 14.151 5.006V12.639C14.151 12.739 14.2 12.89 14.3 12.94Z" fill="#1C1C1C"/>
</svg>
