<svg width="47" height="59" viewBox="0 0 47 59" fill="none" xmlns="http://www.w3.org/2000/svg">
<path d="M23.5 29.5C25.1156 29.5 26.4992 28.9218 27.6507 27.7654C28.8022 26.609 29.377 25.2205 29.375 23.6C29.375 21.9775 28.7992 20.588 27.6477 19.4316C26.4962 18.2753 25.1137 17.698 23.5 17.7C21.8844 17.7 20.5008 18.2782 19.3493 19.4346C18.1978 20.591 17.623 21.9795 17.625 23.6C17.625 25.2225 18.2008 26.612 19.3523 27.7684C20.5038 28.9248 21.8863 29.502 23.5 29.5ZM23.5 51.1825C29.4729 45.6758 33.9036 40.6726 36.7922 36.1729C39.6807 31.6732 41.125 27.6789 41.125 24.19C41.125 18.8308 39.4232 14.4432 36.0196 11.0271C32.616 7.611 28.4428 5.90197 23.5 5.9C18.5552 5.9 14.381 7.60903 10.9774 11.0271C7.57385 14.4452 5.87304 18.8328 5.875 24.19C5.875 27.6808 7.31927 31.6761 10.2078 36.1758C13.0964 40.6756 17.5271 45.6778 23.5 51.1825ZM23.5 59C15.6177 52.2642 9.73096 46.0082 5.83975 40.2321C1.94854 34.456 0.00195833 29.1086 0 24.19C0 16.815 2.36273 10.9396 7.08819 6.56375C11.8136 2.18792 17.2843 0 23.5 0C29.7177 0 35.1893 2.18792 39.9147 6.56375C44.6402 10.9396 47.002 16.815 47 24.19C47 29.1067 45.0534 34.454 41.1602 40.2321C37.2671 46.0102 31.3803 52.2661 23.5 59Z" fill="#222222"/>
</svg>
