<svg width="169" height="154" viewBox="0 0 169 154" fill="none" xmlns="http://www.w3.org/2000/svg">
<path d="M111.937 0L55.9688 32.3136V96.9409L75.3956 108.122L83.9575 113.063L111.937 129.219L167.897 96.9409V32.3136L111.937 0ZM64.5306 92.0007V37.2539L83.9575 26.0373L103.384 37.2539V92.0007L83.9575 103.217L64.5306 92.0007ZM159.353 92.0007L111.937 119.374L92.5194 108.122L111.937 96.9058V32.3136L92.5194 21.097L111.937 9.88045L159.353 37.2539V92.0007Z" fill="white"/>
<path d="M8.56189 59.687L0 64.6272V87.0956L8.56189 82.1466V59.687Z" fill="white"/>
<path d="M8.58825 92.0183L0.0263672 96.9585L28.0151 113.115L36.5682 108.175L8.58825 92.0183Z" fill="white"/>
<path d="M47.4157 14.8206V4.97534L47.3806 4.95776L8.60596 27.347L17.1591 32.2872L47.4157 14.8206Z" fill="white"/>
<path d="M8.56189 37.254L8.60584 37.2276L0.0439522 32.2874L0 32.3137V54.7469L8.56189 49.8067V37.254Z" fill="white"/>
<path d="M55.9688 9.88045L66.1481 15.7613L74.71 10.821L55.9688 0V0.0351617V9.88045Z" fill="white"/>
<path d="M55.9689 119.374L45.1302 113.115L36.5684 118.055L55.9689 129.254L75.3694 118.055L66.8075 113.115L55.9689 119.374Z" fill="white"/>
<path d="M0.272537 142.405C0.267896 142.379 0.26969 142.352 0.277767 142.326C0.285844 142.3 0.299966 142.277 0.318938 142.258C0.33791 142.239 0.361174 142.225 0.386759 142.217C0.412345 142.209 0.4395 142.207 0.465927 142.212H2.03941C2.09368 142.208 2.14808 142.218 2.19736 142.241C2.24663 142.264 2.28912 142.299 2.32071 142.344L7.21698 147.046L12.1133 142.405C12.1944 142.322 12.305 142.275 12.4209 142.273H13.8889C14.012 142.273 14.0823 142.317 14.0823 142.405C14.0738 142.486 14.0491 142.564 14.0099 142.635C13.9706 142.706 13.9175 142.768 13.8538 142.818L7.74441 148.743L7.60376 148.857C7.4876 148.929 7.35335 148.965 7.21698 148.963C7.08043 148.967 6.94574 148.93 6.8302 148.857C6.77828 148.826 6.73096 148.787 6.68956 148.743L2.09216 144.348V153.534C2.09463 153.596 2.08428 153.657 2.06174 153.715C2.0392 153.773 2.00497 153.825 1.96121 153.869C1.91744 153.913 1.86509 153.947 1.80744 153.969C1.7498 153.992 1.68811 154.002 1.62626 154H0.747221C0.681635 153.997 0.617306 153.981 0.558297 153.952C0.499289 153.923 0.446884 153.883 0.404393 153.833C0.318393 153.743 0.271049 153.623 0.272537 153.499V142.405ZM14.0647 153.507C14.0662 153.632 14.0189 153.752 13.9329 153.841C13.8426 153.927 13.723 153.974 13.5988 153.973H12.7198C12.6447 153.985 12.568 153.978 12.4961 153.953C12.4242 153.929 12.3592 153.887 12.3066 153.833C12.2182 153.744 12.1678 153.624 12.166 153.499V146.414C12.1748 146.32 12.2049 146.23 12.2539 146.15C12.3049 146.045 12.3699 145.947 12.4473 145.86L13.6955 144.612C13.7257 144.574 13.763 144.543 13.8053 144.521C13.8476 144.498 13.8939 144.484 13.9417 144.48C13.9944 144.48 14.0208 144.524 14.0208 144.612L14.0647 153.507Z" fill="white"/>
<path d="M28.7445 142.713C28.8024 142.588 28.8937 142.482 29.0083 142.405C29.1276 142.324 29.268 142.278 29.4126 142.273H30.4059C30.5506 142.278 30.6909 142.324 30.8103 142.405C30.9416 142.489 31.0503 142.604 31.1267 142.739L36.9196 153.508C36.9466 153.578 36.9643 153.652 36.9724 153.727C36.9724 153.894 36.8757 153.974 36.6999 153.974H35.3901C35.2847 153.971 35.1821 153.939 35.0937 153.882C35.0053 153.824 34.9344 153.743 34.8891 153.648L33.5881 151.196H28.1907C28.0061 151.196 27.9182 151.108 27.9182 150.941C27.9275 150.866 27.9452 150.792 27.971 150.721L28.4105 149.842C28.4559 149.747 28.5267 149.666 28.6151 149.609C28.7036 149.551 28.8062 149.519 28.9116 149.517H32.7002L29.8873 144.093L25.0174 153.648C24.9754 153.744 24.9047 153.824 24.8152 153.877C24.7304 153.937 24.6293 153.971 24.5251 153.974H23.3472C23.1626 153.974 23.0747 153.894 23.0747 153.727C23.0828 153.652 23.1005 153.578 23.1274 153.508L28.7445 142.713Z" fill="white"/>
<path d="M43.2225 142.713C43.2201 142.651 43.2304 142.589 43.2529 142.532C43.2755 142.474 43.3097 142.422 43.3535 142.378C43.3972 142.334 43.4496 142.3 43.5072 142.277C43.5649 142.255 43.6266 142.245 43.6884 142.247H54.6765C54.7397 142.243 54.8031 142.253 54.8623 142.275C54.9215 142.298 54.975 142.333 55.0193 142.379C55.1053 142.469 55.1526 142.589 55.1512 142.713V143.513C55.1529 143.574 55.1421 143.636 55.1194 143.693C55.0967 143.751 55.0627 143.803 55.0193 143.847C54.977 143.895 54.9241 143.933 54.8645 143.958C54.805 143.982 54.7406 143.992 54.6765 143.987H43.6884C43.626 143.989 43.5641 143.977 43.5066 143.952C43.449 143.928 43.3972 143.892 43.3544 143.847C43.311 143.803 43.2769 143.751 43.2543 143.693C43.2316 143.636 43.2208 143.574 43.2225 143.513V142.713ZM48.1715 145.842C48.1628 145.778 48.1691 145.712 48.1899 145.651C48.2107 145.589 48.2454 145.533 48.2913 145.487C48.3373 145.441 48.3932 145.407 48.4548 145.386C48.5163 145.365 48.5818 145.359 48.6462 145.368H49.6923C49.7567 145.359 49.8222 145.365 49.8838 145.386C49.9453 145.407 50.0013 145.441 50.0472 145.487C50.0931 145.533 50.1279 145.589 50.1486 145.651C50.1694 145.712 50.1757 145.778 50.167 145.842V153.508C50.1682 153.63 50.1244 153.749 50.0439 153.842C49.9973 153.886 49.9422 153.921 49.8817 153.944C49.8212 153.966 49.7568 153.977 49.6923 153.973H48.6462C48.5817 153.977 48.5173 153.966 48.4568 153.944C48.3964 153.921 48.3412 153.886 48.2946 153.842C48.2141 153.749 48.1703 153.63 48.1715 153.508V145.842Z" fill="white"/>
<path d="M62.8689 142.713C62.8678 142.65 62.8798 142.588 62.904 142.531C62.9282 142.473 62.9642 142.422 63.0096 142.379C63.0521 142.336 63.1029 142.302 63.1588 142.28C63.2146 142.257 63.2745 142.246 63.3348 142.247H74.3229C74.3874 142.244 74.4518 142.254 74.5123 142.277C74.5727 142.299 74.6279 142.334 74.6745 142.379C74.755 142.471 74.7988 142.59 74.7976 142.713V143.513C74.7996 143.635 74.7557 143.755 74.6745 143.847C74.6297 143.894 74.575 143.932 74.5143 143.956C74.4535 143.98 74.3882 143.991 74.3229 143.987H63.3348C63.2737 143.988 63.2131 143.976 63.1571 143.952C63.101 143.928 63.0507 143.892 63.0096 143.847C62.9633 143.805 62.9267 143.753 62.9024 143.695C62.8781 143.638 62.8667 143.575 62.8689 143.513V142.713ZM67.8179 145.842C67.8092 145.778 67.8155 145.712 67.8363 145.651C67.8571 145.589 67.8918 145.533 67.9377 145.487C67.9837 145.441 68.0396 145.407 68.1012 145.386C68.1627 145.365 68.2282 145.359 68.2926 145.367H69.3387C69.4031 145.359 69.4686 145.365 69.5302 145.386C69.5917 145.407 69.6477 145.441 69.6936 145.487C69.7395 145.533 69.7743 145.589 69.795 145.651C69.8158 145.712 69.8221 145.778 69.8134 145.842V153.507C69.8146 153.63 69.7708 153.749 69.6903 153.841C69.6437 153.886 69.5886 153.921 69.5281 153.944C69.4676 153.966 69.4032 153.976 69.3387 153.973H68.2926C68.2294 153.977 68.166 153.968 68.1068 153.945C68.0476 153.922 67.9941 153.887 67.9498 153.841C67.8638 153.752 67.8165 153.632 67.8179 153.507V145.842Z" fill="white"/>
<path d="M85.3114 152.233H93.6975C93.7599 152.232 93.8218 152.244 93.8793 152.268C93.9369 152.292 93.9887 152.328 94.0315 152.373C94.0749 152.417 94.1089 152.469 94.1316 152.527C94.1543 152.584 94.1651 152.646 94.1634 152.707V153.507C94.1658 153.569 94.1555 153.631 94.1329 153.688C94.1104 153.746 94.0762 153.798 94.0324 153.842C93.9886 153.886 93.9363 153.92 93.8787 153.943C93.821 153.965 93.7593 153.976 93.6975 153.973H83.9225C83.8621 153.975 83.8021 153.964 83.7461 153.941C83.6902 153.918 83.6395 153.884 83.5973 153.841C83.5519 153.799 83.5159 153.747 83.4917 153.689C83.4675 153.632 83.4555 153.57 83.4566 153.507V142.713C83.4555 142.65 83.4675 142.588 83.4917 142.531C83.5159 142.473 83.5519 142.421 83.5973 142.379C83.6395 142.335 83.6902 142.301 83.7461 142.279C83.8021 142.256 83.8621 142.245 83.9225 142.247H93.592C93.6537 142.245 93.7151 142.256 93.7725 142.279C93.8299 142.301 93.8821 142.335 93.926 142.379C93.9714 142.421 94.0074 142.473 94.0316 142.531C94.0558 142.588 94.0678 142.65 94.0667 142.713V143.513C94.0644 143.638 94.0137 143.757 93.9251 143.846C93.8366 143.934 93.7172 143.985 93.592 143.987H85.3114V152.233ZM86.7794 147.477C86.7772 147.415 86.7886 147.352 86.8129 147.295C86.8372 147.237 86.8737 147.185 86.92 147.143C86.9612 147.098 87.0115 147.062 87.0675 147.038C87.1236 147.013 87.1842 147.001 87.2453 147.002H92.9239C92.9858 147.002 93.0472 147.015 93.1043 147.039C93.1614 147.063 93.2131 147.098 93.2565 147.142C93.2999 147.186 93.334 147.239 93.3569 147.296C93.3798 147.354 93.391 147.415 93.3898 147.477V148.277C93.3939 148.34 93.3842 148.404 93.3614 148.463C93.3386 148.522 93.3033 148.576 93.2579 148.62C93.1668 148.703 93.047 148.747 92.9239 148.743H87.2453C87.1856 148.746 87.1259 148.736 87.07 148.715C87.0141 148.694 86.963 148.661 86.92 148.62C86.8715 148.578 86.8335 148.525 86.8091 148.465C86.7847 148.406 86.7745 148.341 86.7794 148.277V147.477Z" fill="white"/>
<path d="M110.883 142.247C111.371 142.24 111.856 142.332 112.307 142.519C112.716 142.701 113.086 142.961 113.397 143.284C113.71 143.609 113.964 143.987 114.144 144.401C114.388 144.998 114.47 145.649 114.382 146.288C114.294 146.927 114.039 147.531 113.643 148.04C113.141 148.651 112.447 149.076 111.674 149.244L114.829 153.508C114.886 153.587 114.917 153.682 114.917 153.78C114.917 153.912 114.838 153.973 114.698 153.973H113.168C113.106 153.971 113.045 153.953 112.992 153.921C112.931 153.888 112.879 153.84 112.843 153.78L109.546 149.385H107.446C107.383 149.385 107.322 149.372 107.264 149.348C107.207 149.324 107.155 149.289 107.111 149.244C107.066 149.201 107.03 149.15 107.006 149.092C106.982 149.034 106.97 148.973 106.971 148.91V148.189C106.971 148.127 106.983 148.066 107.007 148.009C107.031 147.952 107.066 147.9 107.11 147.857C107.155 147.813 107.207 147.779 107.265 147.756C107.322 147.733 107.384 147.722 107.446 147.723H110.759C111.011 147.733 111.261 147.691 111.495 147.6C111.729 147.51 111.943 147.372 112.122 147.196C112.298 147.018 112.435 146.807 112.526 146.574C112.617 146.341 112.659 146.092 112.649 145.842C112.652 145.599 112.604 145.358 112.509 145.134C112.414 144.91 112.273 144.708 112.096 144.541C111.919 144.37 111.709 144.235 111.48 144.144C111.251 144.054 111.006 144.009 110.759 144.014H105.485V153.534C105.487 153.658 105.439 153.778 105.353 153.868C105.263 153.953 105.143 154 105.019 154H104.017C103.903 153.984 103.799 153.924 103.727 153.833C103.682 153.79 103.646 153.738 103.622 153.681C103.597 153.623 103.585 153.561 103.586 153.499V142.713C103.591 142.596 103.642 142.485 103.727 142.405C103.77 142.362 103.82 142.329 103.876 142.306C103.932 142.283 103.992 142.272 104.052 142.273L110.883 142.247Z" fill="white"/>
<path d="M124.253 142.713C124.25 142.651 124.261 142.589 124.283 142.532C124.306 142.474 124.34 142.422 124.384 142.378C124.428 142.334 124.48 142.3 124.538 142.277C124.595 142.255 124.657 142.244 124.719 142.247H125.774C125.834 142.246 125.894 142.257 125.95 142.28C126.005 142.302 126.056 142.336 126.099 142.379C126.144 142.422 126.18 142.473 126.204 142.531C126.229 142.588 126.241 142.65 126.239 142.713V153.507C126.241 153.57 126.229 153.632 126.204 153.689C126.18 153.747 126.144 153.799 126.099 153.842C126.056 153.884 126.005 153.918 125.95 153.941C125.894 153.963 125.834 153.974 125.774 153.973H124.719C124.657 153.976 124.595 153.965 124.538 153.943C124.48 153.92 124.428 153.886 124.384 153.842C124.34 153.799 124.306 153.746 124.283 153.689C124.261 153.631 124.25 153.569 124.253 153.507V142.713Z" fill="white"/>
<path d="M136.12 153.314C136.118 153.171 136.151 153.029 136.217 152.901C136.287 152.769 136.357 152.629 136.454 152.479L142.739 145.447C142.809 145.368 142.892 145.303 142.985 145.253C143.065 145.197 143.16 145.166 143.258 145.165H145.042C145.156 145.165 145.209 145.165 145.209 145.306C145.197 145.383 145.156 145.452 145.095 145.499L139.091 152.251H146.8C146.866 152.247 146.931 152.258 146.992 152.282C147.052 152.306 147.107 152.344 147.152 152.391C147.233 152.483 147.277 152.602 147.275 152.725V153.525C147.276 153.648 147.232 153.767 147.152 153.859C147.105 153.904 147.05 153.939 146.99 153.961C146.929 153.984 146.865 153.994 146.8 153.991H136.595C136.529 153.995 136.463 153.982 136.404 153.954C136.344 153.927 136.292 153.885 136.252 153.833C136.142 153.684 136.095 153.498 136.12 153.314ZM136.841 142.713C136.836 142.649 136.846 142.584 136.87 142.525C136.895 142.465 136.933 142.412 136.981 142.37C137.026 142.328 137.078 142.295 137.136 142.274C137.193 142.253 137.254 142.244 137.315 142.247H146.985C147.169 142.247 147.266 142.309 147.266 142.44C147.267 142.645 147.226 142.848 147.144 143.036C147.062 143.223 146.942 143.392 146.791 143.53C146.644 143.68 146.467 143.798 146.272 143.876C146.077 143.955 145.868 143.993 145.658 143.988H137.307C137.181 143.985 137.062 143.935 136.973 143.846C136.885 143.757 136.834 143.638 136.832 143.513L136.841 142.713Z" fill="white"/>
<path d="M159.309 152.233H167.695C167.821 152.235 167.94 152.286 168.029 152.374C168.117 152.463 168.168 152.582 168.17 152.707V153.507C168.171 153.57 168.159 153.632 168.135 153.689C168.111 153.747 168.075 153.798 168.029 153.841C167.986 153.885 167.933 153.919 167.876 153.941C167.819 153.964 167.757 153.975 167.695 153.973H157.92C157.86 153.974 157.8 153.963 157.744 153.94C157.689 153.918 157.638 153.884 157.595 153.841C157.507 153.752 157.456 153.633 157.455 153.507V142.713C157.456 142.587 157.507 142.467 157.595 142.378C157.638 142.336 157.689 142.302 157.744 142.279C157.8 142.257 157.86 142.246 157.92 142.247H167.59C167.65 142.246 167.71 142.257 167.766 142.279C167.822 142.302 167.873 142.336 167.915 142.378C167.961 142.421 167.997 142.473 168.021 142.531C168.045 142.588 168.057 142.65 168.056 142.713V143.512C168.058 143.575 168.047 143.637 168.022 143.695C167.998 143.753 167.962 143.804 167.915 143.846C167.874 143.892 167.824 143.928 167.768 143.952C167.712 143.976 167.651 143.988 167.59 143.987H159.309V152.233ZM160.777 147.477C160.78 147.352 160.83 147.232 160.919 147.144C161.007 147.055 161.127 147.005 161.252 147.002H166.922C166.984 147.001 167.046 147.013 167.104 147.037C167.161 147.062 167.213 147.098 167.256 147.143C167.301 147.186 167.336 147.238 167.36 147.296C167.384 147.353 167.397 147.415 167.397 147.477V148.277C167.4 148.341 167.388 148.405 167.364 148.464C167.34 148.523 167.303 148.576 167.256 148.62C167.165 148.703 167.045 148.748 166.922 148.743H161.252C161.191 148.746 161.13 148.737 161.072 148.716C161.015 148.695 160.962 148.662 160.918 148.62C160.87 148.577 160.832 148.524 160.807 148.465C160.783 148.405 160.773 148.341 160.777 148.277V147.477Z" fill="white"/>
</svg>
