<svg width="196" height="28" viewBox="0 0 196 28" fill="none" xmlns="http://www.w3.org/2000/svg">
<path d="M48.9847 20.3737C45.5735 20.3737 43.7476 15.8442 41.8149 11.0485C39.7639 5.95869 37.6422 0.695648 33.1228 0.695648C28.5979 0.695648 26.5797 7.04906 24.4712 13.835C22.6093 15.6094 20.8018 17.2483 17.2582 17.2483C13.6593 17.2483 11.8495 15.2402 9.933 13.1135C9.23334 12.3379 8.50887 11.5382 7.6863 10.8251L7.66991 10.8037C7.25136 10.225 6.80691 9.70162 6.3464 9.24671L6.34601 9.24717C6.28535 9.18657 6.21362 9.13873 6.13694 9.09879C4.88561 7.54829 3.37099 6.54603 1.40082 6.54603C0.947582 6.54603 0.580566 6.91305 0.580566 7.36628C0.580566 7.81952 0.947582 8.18653 1.40082 8.18653C4.81158 8.18653 6.63711 12.7162 8.56946 17.5119C10.6206 22.6016 12.7419 27.8647 17.2603 27.8647C21.7841 27.8647 23.8029 21.5132 25.9107 14.7284C27.7738 12.9531 29.5813 11.3123 33.1196 11.3123C36.7201 11.3123 38.5288 13.3179 40.4436 15.4406C41.1458 16.2194 41.8731 17.0212 42.6998 17.7362L42.7159 17.7569C43.1345 18.3356 43.579 18.859 44.0395 19.3137L44.0397 19.3134C44.1001 19.3736 44.1711 19.4209 44.2478 19.4611C45.4999 21.0123 47.0141 22.0141 48.9847 22.0141C49.4378 22.0141 49.8049 21.6472 49.8049 21.1939C49.8049 20.7411 49.4378 20.3737 48.9847 20.3737ZM33.1224 2.33647C35.8019 2.33647 37.5022 5.13417 39.045 8.65628C37.5684 6.77657 35.7492 5.41947 33.1194 5.41947C31.1356 5.41947 29.6143 6.26986 28.355 7.57774C29.6278 4.53478 31.12 2.33647 33.1224 2.33647ZM17.2573 18.8892C19.5425 18.8892 21.2128 18.3093 22.5926 17.4701C21.2093 19.7913 19.6159 21.5004 17.2573 21.5004C14.4245 21.5004 12.6984 19.3223 11.1205 16.636C12.6439 17.9083 14.5378 18.8892 17.2573 18.8892ZM17.2605 26.2244C14.584 26.2244 12.8847 23.432 11.3425 19.9144C12.8159 21.7888 14.6323 23.1413 17.2575 23.1413C19.2434 23.1413 20.7667 22.292 22.0267 20.9847C20.7537 24.0272 19.2617 26.2244 17.2605 26.2244ZM33.1201 9.67143C30.8393 9.67143 29.1708 10.2508 27.7921 11.0903C29.1747 8.76958 30.7663 7.06039 33.1201 7.06039C35.9535 7.06039 37.6826 9.23928 39.2631 11.9279C37.7393 10.6539 35.8439 9.67143 33.1201 9.67143Z" fill="url(#paint0_linear_46_337)"/>
<path d="M60.3693 22.4253C59.2101 22.4253 58.0955 22.2395 57.0254 21.868C55.9702 21.4816 55.1528 20.9911 54.5732 20.3967L55.2197 19.126C55.7696 19.661 56.5053 20.1143 57.4267 20.4858C58.363 20.8425 59.3439 21.0209 60.3693 21.0209C61.3502 21.0209 62.1453 20.902 62.7546 20.6642C63.3788 20.4115 63.8321 20.0772 64.1145 19.661C64.4117 19.2449 64.5603 18.7842 64.5603 18.2789C64.5603 17.6696 64.382 17.1791 64.0253 16.8076C63.6835 16.436 63.2302 16.1462 62.6654 15.9382C62.1007 15.7152 61.4765 15.522 60.7929 15.3586C60.1092 15.1951 59.4256 15.0242 58.742 14.8458C58.0583 14.6526 57.4267 14.4 56.8471 14.0879C56.2823 13.7758 55.8216 13.3671 55.4649 12.8618C55.1231 12.3416 54.9522 11.6654 54.9522 10.8332C54.9522 10.0604 55.1528 9.35442 55.5541 8.71537C55.9702 8.06145 56.6019 7.54129 57.449 7.15489C58.2961 6.75362 59.381 6.55299 60.7037 6.55299C61.5805 6.55299 62.45 6.67931 63.3119 6.93196C64.1739 7.16975 64.917 7.50414 65.5412 7.93513L64.9839 9.25039C64.3151 8.80454 63.6017 8.47758 62.8438 8.26952C62.1007 8.06145 61.3799 7.95742 60.6814 7.95742C59.7451 7.95742 58.9723 8.08375 58.363 8.3364C57.7537 8.58905 57.3004 8.93087 57.0031 9.36186C56.7208 9.77798 56.5796 10.2536 56.5796 10.7886C56.5796 11.3979 56.7505 11.8883 57.0923 12.2599C57.449 12.6314 57.9097 12.9212 58.4744 13.1293C59.0541 13.3374 59.6857 13.5231 60.3693 13.6866C61.0529 13.8501 61.7292 14.0284 62.3979 14.2216C63.0816 14.4148 63.7058 14.6675 64.2705 14.9796C64.8501 15.2768 65.3108 15.6781 65.6527 16.1834C66.0093 16.6887 66.1877 17.35 66.1877 18.1674C66.1877 18.9254 65.9796 19.6313 65.5635 20.2852C65.1474 20.9243 64.5083 21.4444 63.6463 21.8457C62.7992 22.2321 61.7069 22.4253 60.3693 22.4253ZM74.419 22.403C73.2003 22.403 72.1303 22.1504 71.2088 21.6451C70.2874 21.1249 69.5666 20.419 69.0465 19.5273C68.5263 18.6207 68.2662 17.5878 68.2662 16.4286C68.2662 15.2694 68.5114 14.2439 69.0019 13.3522C69.5072 12.4605 70.1908 11.762 71.0528 11.2567C71.9296 10.7366 72.9105 10.4765 73.9954 10.4765C75.0952 10.4765 76.0686 10.7291 76.9157 11.2344C77.7777 11.7249 78.4539 12.4234 78.9444 13.3299C79.4348 14.2216 79.68 15.2545 79.68 16.4286C79.68 16.5029 79.6726 16.5846 79.6577 16.6738C79.6577 16.7481 79.6577 16.8299 79.6577 16.919H69.47V15.7375H78.8106L78.1864 16.2057C78.1864 15.3586 78.0007 14.608 77.6291 13.9541C77.2724 13.2853 76.782 12.7652 76.1578 12.3936C75.5336 12.0221 74.8128 11.8363 73.9954 11.8363C73.1929 11.8363 72.4721 12.0221 71.833 12.3936C71.194 12.7652 70.6961 13.2853 70.3394 13.9541C69.9828 14.6229 69.8044 15.3883 69.8044 16.2503V16.4955C69.8044 17.3872 69.9976 18.1749 70.384 18.8585C70.7853 19.5273 71.3352 20.0549 72.0337 20.4413C72.747 20.8128 73.557 20.9986 74.4636 20.9986C75.1769 20.9986 75.8383 20.8723 76.4476 20.6196C77.0718 20.367 77.6068 19.9805 78.0527 19.4604L78.9444 20.4858C78.4242 21.11 77.7703 21.5856 76.9826 21.9126C76.2098 22.2395 75.3553 22.403 74.419 22.403ZM88.8759 10.4765C89.8271 10.4765 90.6594 10.6623 91.3727 11.0338C92.1009 11.3905 92.6657 11.9404 93.067 12.6834C93.4831 13.4265 93.6911 14.3628 93.6911 15.4923V22.2915H92.1084V15.6484C92.1084 14.4148 91.7963 13.486 91.1721 12.8618C90.5628 12.2227 89.7008 11.9032 88.5861 11.9032C87.7539 11.9032 87.0257 12.0741 86.4015 12.4159C85.7921 12.7429 85.3166 13.2259 84.9747 13.865C84.6478 14.4891 84.4843 15.2471 84.4843 16.1388V22.2915H82.9015V10.5879H84.4174V13.7981L84.1722 13.1962C84.5438 12.3491 85.1382 11.6877 85.9556 11.2121C86.773 10.7217 87.7465 10.4765 88.8759 10.4765ZM101.11 22.403C100.144 22.403 99.2297 22.2693 98.3677 22.0017C97.5057 21.7194 96.8295 21.3701 96.3391 20.954L97.0524 19.7056C97.528 20.0623 98.1374 20.3744 98.8804 20.6419C99.6235 20.8945 100.404 21.0209 101.221 21.0209C102.336 21.0209 103.138 20.85 103.629 20.5081C104.119 20.1515 104.364 19.6833 104.364 19.1037C104.364 18.6727 104.223 18.3383 103.941 18.1005C103.673 17.8479 103.317 17.6621 102.871 17.5432C102.425 17.4095 101.927 17.298 101.377 17.2088C100.827 17.1197 100.277 17.0156 99.7276 16.8967C99.1925 16.7779 98.7021 16.6069 98.2562 16.384C97.8104 16.1462 97.4463 15.8267 97.1639 15.4254C96.8964 15.0242 96.7626 14.4891 96.7626 13.8204C96.7626 13.1813 96.941 12.6091 97.2977 12.1038C97.6543 11.5985 98.1745 11.2047 98.8581 10.9223C99.5566 10.6251 100.404 10.4765 101.399 10.4765C102.157 10.4765 102.915 10.5805 103.673 10.7886C104.431 10.9818 105.055 11.2419 105.546 11.5688L104.855 12.8395C104.335 12.4828 103.777 12.2302 103.183 12.0815C102.588 11.9181 101.994 11.8363 101.399 11.8363C100.344 11.8363 99.5641 12.0221 99.0588 12.3936C98.5683 12.7503 98.3231 13.211 98.3231 13.7758C98.3231 14.2216 98.4569 14.5709 98.7244 14.8235C99.0068 15.0762 99.3709 15.2768 99.8167 15.4254C100.277 15.5592 100.775 15.6707 101.31 15.7598C101.86 15.849 102.403 15.9605 102.938 16.0942C103.488 16.2131 103.985 16.384 104.431 16.6069C104.892 16.815 105.256 17.1197 105.524 17.5209C105.806 17.9073 105.947 18.4201 105.947 19.0591C105.947 19.7428 105.754 20.3372 105.368 20.8425C104.996 21.333 104.446 21.7194 103.718 22.0017C103.005 22.2693 102.135 22.403 101.11 22.403ZM113.823 22.403C112.604 22.403 111.534 22.1504 110.613 21.6451C109.691 21.1249 108.97 20.419 108.45 19.5273C107.93 18.6207 107.67 17.5878 107.67 16.4286C107.67 15.2694 107.915 14.2439 108.406 13.3522C108.911 12.4605 109.595 11.762 110.457 11.2567C111.333 10.7366 112.314 10.4765 113.399 10.4765C114.499 10.4765 115.472 10.7291 116.32 11.2344C117.181 11.7249 117.858 12.4234 118.348 13.3299C118.839 14.2216 119.084 15.2545 119.084 16.4286C119.084 16.5029 119.076 16.5846 119.061 16.6738C119.061 16.7481 119.061 16.8299 119.061 16.919H108.874V15.7375H118.214L117.59 16.2057C117.59 15.3586 117.404 14.608 117.033 13.9541C116.676 13.2853 116.186 12.7652 115.562 12.3936C114.937 12.0221 114.217 11.8363 113.399 11.8363C112.597 11.8363 111.876 12.0221 111.237 12.3936C110.598 12.7652 110.1 13.2853 109.743 13.9541C109.387 14.6229 109.208 15.3883 109.208 16.2503V16.4955C109.208 17.3872 109.401 18.1749 109.788 18.8585C110.189 19.5273 110.739 20.0549 111.437 20.4413C112.151 20.8128 112.961 20.9986 113.867 20.9986C114.581 20.9986 115.242 20.8723 115.851 20.6196C116.476 20.367 117.011 19.9805 117.456 19.4604L118.348 20.4858C117.828 21.11 117.174 21.5856 116.386 21.9126C115.614 22.2395 114.759 22.403 113.823 22.403ZM122.64 22.2915V6.68675H129.372C131.111 6.68675 132.456 7.036 133.407 7.7345C134.373 8.433 134.856 9.4213 134.856 10.6994C134.856 11.5465 134.656 12.2599 134.254 12.8395C133.868 13.4191 133.333 13.8575 132.649 14.1548C131.981 14.452 131.245 14.6006 130.442 14.6006L130.821 14.0656C131.817 14.0656 132.672 14.2216 133.385 14.5337C134.113 14.831 134.678 15.2842 135.079 15.8936C135.48 16.488 135.681 17.2311 135.681 18.1228C135.681 19.4455 135.191 20.471 134.21 21.1992C133.244 21.9274 131.78 22.2915 129.818 22.2915H122.64ZM124.29 20.9317H129.796C131.163 20.9317 132.211 20.7013 132.939 20.2406C133.667 19.7651 134.031 19.0145 134.031 17.9891C134.031 16.9785 133.667 16.2428 132.939 15.7821C132.211 15.3065 131.163 15.0688 129.796 15.0688H124.111V13.7089H129.261C130.509 13.7089 131.475 13.4711 132.159 12.9955C132.857 12.52 133.206 11.814 133.206 10.8777C133.206 9.9266 132.857 9.22067 132.159 8.75995C131.475 8.28438 130.509 8.04659 129.261 8.04659H124.29V20.9317ZM146.446 22.2915V19.7056L146.379 19.2821V14.9573C146.379 13.9616 146.097 13.1962 145.532 12.6612C144.982 12.1261 144.158 11.8586 143.058 11.8586C142.3 11.8586 141.579 11.9849 140.895 12.2376C140.212 12.4902 139.632 12.8246 139.157 13.2408L138.443 12.0593C139.038 11.554 139.751 11.1676 140.583 10.9C141.416 10.6177 142.292 10.4765 143.214 10.4765C144.73 10.4765 145.896 10.8555 146.714 11.6134C147.546 12.3565 147.962 13.4934 147.962 15.0242V22.2915H146.446ZM142.411 22.403C141.535 22.403 140.769 22.2618 140.115 21.9795C139.476 21.6822 138.986 21.2809 138.644 20.7757C138.302 20.2555 138.131 19.661 138.131 18.9922C138.131 18.3829 138.272 17.833 138.555 17.3426C138.852 16.8373 139.328 16.436 139.981 16.1388C140.65 15.8267 141.542 15.6707 142.657 15.6707H146.692V16.8522H142.701C141.572 16.8522 140.784 17.0528 140.338 17.4541C139.907 17.8553 139.691 18.3532 139.691 18.9477C139.691 19.6164 139.952 20.1515 140.472 20.5527C140.992 20.954 141.72 21.1546 142.657 21.1546C143.548 21.1546 144.314 20.954 144.953 20.5527C145.607 20.1366 146.082 19.5421 146.379 18.7693L146.736 19.8617C146.439 20.6345 145.919 21.2512 145.176 21.7119C144.447 22.1727 143.526 22.403 142.411 22.403ZM157.121 22.403C155.962 22.403 154.921 22.1504 154 21.6451C153.093 21.1249 152.38 20.419 151.86 19.5273C151.34 18.6207 151.08 17.5878 151.08 16.4286C151.08 15.2545 151.34 14.2216 151.86 13.3299C152.38 12.4382 153.093 11.7397 154 11.2344C154.921 10.7291 155.962 10.4765 157.121 10.4765C158.117 10.4765 159.016 10.6697 159.818 11.0561C160.621 11.4425 161.253 12.0221 161.713 12.7949L160.532 13.5974C160.13 13.003 159.633 12.5646 159.038 12.2822C158.444 11.9998 157.797 11.8586 157.099 11.8586C156.266 11.8586 155.516 12.0518 154.847 12.4382C154.178 12.8098 153.651 13.3374 153.264 14.021C152.878 14.7046 152.685 15.5072 152.685 16.4286C152.685 17.35 152.878 18.1526 153.264 18.8362C153.651 19.5198 154.178 20.0549 154.847 20.4413C155.516 20.8128 156.266 20.9986 157.099 20.9986C157.797 20.9986 158.444 20.8574 159.038 20.575C159.633 20.2926 160.13 19.8617 160.532 19.2821L161.713 20.0846C161.253 20.8425 160.621 21.4221 159.818 21.8234C159.016 22.2098 158.117 22.403 157.121 22.403ZM165.897 19.2598L165.941 17.2311L173.231 10.5879H175.17L170.021 15.5146L169.129 16.2726L165.897 19.2598ZM164.648 22.2915V5.75046H166.231V22.2915H164.648ZM173.721 22.2915L168.839 16.2057L169.865 14.9796L175.661 22.2915H173.721ZM175.875 22.2915L183.008 6.68675H184.636L191.769 22.2915H190.03L183.476 7.64533H184.145L177.591 22.2915H175.875ZM178.683 18.1228L179.174 16.7853H188.247L188.737 18.1228H178.683ZM194.35 22.2915V6.68675H196V22.2915H194.35Z" fill="#1C1C1C"/>
<defs>
<linearGradient id="paint0_linear_46_337" x1="49.8054" y1="14.2472" x2="0.580566" y2="14.2472" gradientUnits="userSpaceOnUse">
<stop stop-color="#7F00FF"/>
<stop offset="0.9997" stop-color="#00A1FF"/>
<stop offset="0.9998" stop-color="#00A1FF"/>
<stop offset="0.9999" stop-color="#E100FF"/>
</linearGradient>
</defs>
</svg>
